# xmcd CD database file
#
# Track frame offsets:
#	150
#	62627
#	104107
#	125865
#	184609
#	211942
#	214912
#
# Disc length: 3367 seconds
#
# Revision: 0
# Processed by: cddbd v1.5.2PL0 Copyright (c) Steve Scherf et al.
# Submitted via: CDex 1.51
#
DISCID=6f0d2507
DTITLE=Sansara music band - Plays Lars Färnlöf
DYEAR=2007
DGENRE=Jazz
TTITLE0=Boutique Sandhamn
TTITLE1=Gabor´s elephant dance
TTITLE2=It´s all over now
TTITLE3=Song of Hesperia
TTITLE4=Birth cry part 1
TTITLE5=Birth cry part 2
TTITLE6=Birth cry part 3
EXTD=YEAR: 2007
EXTT0=
EXTT1=
EXTT2=
EXTT3=
EXTT4=
EXTT5=
EXTT6=
PLAYORDER=
